<svg width="80" height="80" viewBox="0 0 80 80" fill="none" xmlns="http://www.w3.org/2000/svg">
  <rect width="80" height="80" rx="16" fill="#0EA5E9"/>
  <path d="M60.42 25.73C55.5 18.27 46.05 15.4 39.45 20.39L39 20.73L28.68 8.73C27.03 6.82 24.29 6.52 22.27 8L2.02 23C0.2 24.34 -0.63 26.62 -0.06 28.84L5.85 51.7C6.58 54.51 9.17 56.44 12.05 56.44H16.75L17.18 77.03C17.21 78.32 17.68 79.57 18.51 80.55C19.34 81.53 20.49 82.21 21.78 82.46L54.93 88.87C55.26 88.93 55.6 88.97 55.93 88.97C58.51 88.97 60.78 87.16 61.34 84.59L68.74 50.63C69.04 49.25 68.87 47.82 68.27 46.55L62.85 35.03C66.1 32.01 64.29 27.62 60.42 25.73Z" fill="white"/>
  <path d="M50.38 56.36H29.72C27.88 56.36 26.28 55.11 25.82 53.32L19.9 30.47C19.54 29.07 20.07 27.62 21.23 26.79L41.48 11.79C42.74 10.86 44.48 11.05 45.53 12.25L53.55 21.52L53.81 36.7C54.13 37.66 54.78 38.47 55.64 39.03C56.5 39.58 57.52 39.82 58.53 39.71L68.95 38.5L73.63 48.46C74.01 49.26 74.11 50.16 73.93 51.03L72.3 58.5C72.12 59.32 71.32 59.84 70.5 59.66L52.1 55.64C51.49 55.44 50.94 56.36 50.38 56.36Z" fill="#0EA5E9"/>
</svg>